<svg viewBox="0 0 400 225" version="1.1" id="svg648" xmlns="http://www.w3.org/2000/svg"><defs id="defs604"><style id="style602">.cls-1{fill:none}.cls-3{fill:#fff}.cls-5{fill:#97b9f5}.cls-6{fill:#405f84}</style></defs><g id="Layer_2" data-name="Layer 2"><path class="cls-1" id="rect339" style="fill:#d62b99;fill-opacity:1;font-variation-settings:normal;opacity:1;vector-effect:none;stroke-width:1;stroke-linecap:butt;stroke-linejoin:miter;stroke-miterlimit:4;stroke-dasharray:none;stroke-dashoffset:0;stroke-opacity:1;-inkscape-stroke:none;stop-color:#000;stop-opacity:1" d="M130.435 25.715h139.13v173.57h-139.13z"/><g id="g347" transform="translate(-4.005 -.995)"><g id="g343" style="opacity:.15;fill:#ea964d"><path class="cls-3" id="rect341" style="fill:#231f20" d="M150.44 43.38h112.94v146.07H150.44z"/></g><path id="rect345" style="fill:#fff" d="M147.53 40.46h112.94v146.07H147.53z"/></g><path class="cls-5" d="M196.125 74.115h-25.55a1.17 1.17 0 0 1-1.17-1.17v-4.66a1.35 1.35 0 0 1 1.17-1.36h25.56a1.35 1.35 0 0 1 1.17 1.36v4.66a1.17 1.17 0 0 1-1.18 1.17z" id="path349" style="font-variation-settings:normal;vector-effect:none;fill:#b0afad;fill-opacity:1;stroke-width:1;stroke-linecap:butt;stroke-linejoin:miter;stroke-miterlimit:4;stroke-dasharray:none;stroke-dashoffset:0;stroke-opacity:1;-inkscape-stroke:none;stop-color:#000"/><path class="cls-6" d="M164.435 74.115h-6.58a1.17 1.17 0 0 1-1.17-1.17v-4.66a1.35 1.35 0 0 1 1.17-1.36h6.58a1.35 1.35 0 0 1 1.17 1.36v4.66a1.17 1.17 0 0 1-1.17 1.17z" id="path351" style="fill:#b0afad"/><path class="cls-6" d="M216.125 74.115h-13.72a1.17 1.17 0 0 1-1.17-1.17v-4.66a1.35 1.35 0 0 1 1.17-1.36h13.73a1.35 1.35 0 0 1 1.17 1.36v4.66a1.17 1.17 0 0 1-1.18 1.17z" id="path353" style="fill:#b0afad"/><path class="cls-6" d="M244.555 74.115h-21.68a1.17 1.17 0 0 1-1.17-1.17v-4.66a1.35 1.35 0 0 1 1.17-1.36h21.68a1.35 1.35 0 0 1 1.17 1.36v4.66a1.17 1.17 0 0 1-1.17 1.17z" id="path355" style="fill:#b0afad"/><rect class="cls-6" x="156.685" y="88.465" width="12.72" height="7.19" rx="1.17" ry="1.17" id="rect357" style="fill:#b0afad"/><rect class="cls-6" x="172.865" y="88.465" width="9.94" height="7.19" rx="1.17" ry="1.17" id="rect359" style="fill:#b0afad"/><rect class="cls-6" x="207.355" y="88.465" width="19.68" height="7.19" rx="1.17" ry="1.17" id="rect361" style="fill:#b0afad"/><rect class="cls-6" x="230.605" y="88.465" width="7.56" height="7.19" rx="1.17" ry="1.17" id="rect363" style="fill:#b0afad"/><rect class="cls-5" x="186.305" y="88.465" width="16.9" height="7.19" rx="1.17" ry="1.17" id="rect365" style="font-variation-settings:normal;vector-effect:none;fill:#b0afad;fill-opacity:1;stroke-width:1;stroke-linecap:butt;stroke-linejoin:miter;stroke-miterlimit:4;stroke-dasharray:none;stroke-dashoffset:0;stroke-opacity:1;-inkscape-stroke:none;stop-color:#000"/><rect class="cls-6" x="219.325" y="110.005" width="9.94" height="7.19" rx="1.17" ry="1.17" id="rect367" style="fill:#b0afad"/><rect class="cls-6" x="156.685" y="110.005" width="15.12" height="7.19" rx="1.17" ry="1.17" id="rect369" style="fill:#b0afad"/><rect class="cls-6" x="175.575" y="110.005" width="39.68" height="7.19" rx="1.17" ry="1.17" id="rect371" style="fill:#b0afad"/><rect class="cls-6" x="156.685" y="131.535" width="8.92" height="7.19" rx="1.17" ry="1.17" id="rect373" style="fill:#b0afad"/><rect class="cls-6" x="183.915" y="131.535" width="13.94" height="7.19" rx="1.17" ry="1.17" id="rect375" style="fill:#b0afad"/><rect class="cls-6" x="229.545" y="131.535" width="14.02" height="7.19" rx="1.17" ry="1.17" id="rect379" style="fill:#b0afad"/><rect class="cls-5" x="169.405" y="131.535" width="10.99" height="7.19" rx="1.17" ry="1.17" id="rect381" style="font-variation-settings:normal;vector-effect:none;fill:#b0afad;fill-opacity:1;stroke-width:1;stroke-linecap:butt;stroke-linejoin:miter;stroke-miterlimit:4;stroke-dasharray:none;stroke-dashoffset:0;stroke-opacity:1;-inkscape-stroke:none;stop-color:#000"/><rect class="cls-6" x="156.685" y="153.075" width="23.71" height="7.19" rx="1.17" ry="1.17" id="rect383" style="fill:#b0afad"/><rect class="cls-6" x="183.755" y="153.075" width="5.07" height="7.19" rx="1.17" ry="1.17" id="rect385" style="fill:#b0afad"/><rect class="cls-5" x="191.915" y="153.075" width="29.79" height="7.19" rx="1.17" ry="1.17" id="rect387" style="font-variation-settings:normal;vector-effect:none;fill:#b0afad;fill-opacity:1;stroke-width:1;stroke-linecap:butt;stroke-linejoin:miter;stroke-miterlimit:4;stroke-dasharray:none;stroke-dashoffset:0;stroke-opacity:1;-inkscape-stroke:none;stop-color:#000"/><path id="rect375-3" style="fill:#b0afad" class="cls-6" d="M202.924 131.535c-.648 0-1.17.522-1.17 1.17v4.851c0 .649.522 1.17 1.17 1.17h21.803c.648 0 1.17-.521 1.17-1.17v-4.851c0-.648-.522-1.17-1.17-1.17h-11.602Z"/><path class="cls-1" id="rect608" d="M0 0h400v225H0z"/><circle style="font-variation-settings:normal;vector-effect:none;fill:#97b9f5;fill-opacity:1;stroke-width:1;stroke-linecap:butt;stroke-linejoin:miter;stroke-miterlimit:4;stroke-dasharray:none;stroke-dashoffset:0;stroke-opacity:1;-inkscape-stroke:none;paint-order:stroke fill markers;stop-color:#000;opacity:1;stop-opacity:1" id="path1240" cx="264.164" cy="164.5" r="45.452"/><circle style="font-variation-settings:normal;vector-effect:none;fill:#405f84;fill-opacity:1;stroke-width:1;stroke-linecap:butt;stroke-linejoin:miter;stroke-miterlimit:4;stroke-dasharray:none;stroke-dashoffset:0;stroke-opacity:1;-inkscape-stroke:none;paint-order:stroke fill markers;stop-color:#000;opacity:1;stop-opacity:1" id="path1240-3" cx="264.164" cy="164.5" r="36.93"/><g id="g915" transform="matrix(.56815 0 0 .56815 149.12 103.078)"><path class="cls-3" d="M225 100.87a3 3 0 0 0-3 2.86v3.06a20 20 0 1 1-40 0v-3.06a2.52 2.52 0 1 0-5 0v3.06c0 13.25 9 24.17 22 25.6v5.1h-10.43a3 3 0 0 0 0 6h28.64a3 3 0 0 0 0-6H206v-5.1c12-1.43 22-12.35 22-25.6v-3.06a3 3 0 0 0-3-2.86z" id="path640"/><rect class="cls-3" x="188.32" y="72.73" width="29.45" height="46.56" rx="14.19" ry="14.19" id="rect642"/></g></g></svg>